<?xml version="1.0" standalone="no"?>
<!DOCTYPE svg PUBLIC "-//W3C//DTD SVG 20010904//EN"
 "http://www.w3.org/TR/2001/REC-SVG-20010904/DTD/svg10.dtd">
<svg version="1.0" xmlns="http://www.w3.org/2000/svg"
 width="1280.000000pt" height="1107.000000pt" viewBox="0 0 1280.000000 1107.000000"
 preserveAspectRatio="xMidYMid meet">
<g transform="translate(0.000000,1107.000000) scale(0.100000,-0.100000)"
fill="#000000" stroke="none">
<path d="M6105 11050 c-607 -54 -1072 -179 -1580 -425 -1233 -599 -2116 -1762
-2359 -3110 -51 -283 -61 -405 -61 -770 0 -364 10 -483 61 -765 124 -682 415
-1331 842 -1880 167 -213 430 -486 632 -654 52 -44 96 -85 98 -92 2 -8 -18
-17 -55 -24 -1473 -296 -2340 -561 -3189 -974 -127 -62 -290 -145 -362 -185
-111 -61 -132 -76 -132 -96 0 -12 6 -25 14 -28 8 -3 80 -11 160 -18 169 -15
309 -4 501 37 430 92 605 120 605 96 0 -6 -53 -50 -118 -98 -146 -110 -336
-299 -424 -424 -38 -52 -90 -140 -117 -195 -53 -107 -118 -282 -108 -292 4 -3
82 39 174 93 510 299 1086 536 1773 729 177 50 353 95 371 95 13 0 12 -11 -25
-214 -35 -189 -44 -193 -48 -22 l-3 100 -48 12 c-45 11 -49 11 -62 -9 -19 -31
-55 -121 -75 -191 -9 -33 -22 -62 -28 -64 -6 -2 -24 39 -43 98 -17 56 -35 98
-39 93 -18 -18 -102 -312 -120 -421 -33 -189 -24 -315 31 -472 52 -148 81
-111 -248 -315 -487 -302 -907 -567 -923 -582 -20 -19 -46 -29 460 182 276
115 499 215 636 286 116 60 217 109 224 109 7 0 61 -46 119 -103 108 -105 210
-187 361 -290 l85 -58 32 38 c20 23 30 45 27 56 -7 24 4 22 83 -14 124 -56
554 -239 562 -239 4 0 17 20 28 44 17 34 19 47 10 54 -7 5 -91 55 -187 111
-204 120 -281 173 -350 243 -78 79 -70 84 66 38 97 -33 432 -120 462 -120 13
0 22 12 31 41 7 23 9 45 4 49 -4 4 -71 28 -149 54 -152 50 -271 103 -293 130
-22 26 -10 26 54 -1 86 -35 216 -68 408 -103 l168 -31 252 100 c255 101 592
229 1322 503 698 261 1222 467 1580 618 396 167 859 385 1092 513 65 35 136
74 158 86 l41 21 159 -20 c672 -85 1319 -236 1890 -440 511 -182 901 -370
1314 -632 68 -44 125 -77 127 -75 6 5 -93 523 -121 631 -39 150 -75 218 -163
305 -68 67 -73 75 -57 87 40 29 123 37 425 39 331 2 396 9 529 63 83 33 211
118 211 140 0 19 -120 98 -235 155 -313 155 -851 325 -1510 478 -212 49 -899
188 -1115 226 -75 13 -105 23 -107 33 -1 9 38 43 99 85 235 161 648 476 1008
769 367 298 1200 997 1200 1006 0 6 -3 10 -7 10 -3 0 -139 27 -302 60 -431 87
-796 143 -1119 171 -78 7 -147 16 -153 20 -8 5 1 56 29 170 96 387 132 674
132 1064 0 295 -17 488 -67 770 -285 1608 -1491 2935 -3073 3383 -280 80 -518
121 -880 152 -267 23 -331 23 -595 0z m675 -1485 c813 -112 1529 -557 1986
-1235 238 -354 386 -734 456 -1171 19 -124 22 -181 22 -409 0 -227 -3 -286
-22 -410 -23 -146 -54 -281 -93 -414 -50 -167 -175 -462 -201 -471 -28 -10
-833 -133 -841 -128 -4 2 -5 8 -2 13 3 5 96 71 205 147 l200 137 0 1423 0
1423 -61 0 c-58 0 -64 -2 -195 -86 -80 -51 -139 -83 -144 -78 -5 5 -11 60 -12
122 l-3 114 -179 -126 c-99 -69 -183 -126 -188 -126 -4 0 -8 54 -8 119 0 68
-4 122 -10 126 -5 3 -71 -48 -147 -115 -75 -66 -143 -120 -150 -120 -10 0 -13
29 -13 125 0 70 -4 125 -9 125 -5 0 -53 -48 -106 -107 -54 -60 -104 -109 -111
-111 -11 -3 -14 23 -16 120 l-3 123 -369 -498 c-203 -274 -374 -496 -380 -494
-6 2 -175 225 -376 496 l-365 492 -5 -117 c-3 -71 -9 -119 -16 -121 -6 -2 -57
49 -115 113 l-104 117 -3 -129 c-1 -71 -6 -132 -11 -137 -4 -4 -72 49 -150
118 -78 69 -146 125 -151 125 -6 0 -10 -50 -10 -119 0 -67 -4 -122 -10 -126
-5 -3 -90 51 -187 120 l-178 126 -3 -110 c-2 -95 -5 -111 -19 -111 -9 0 -69
34 -134 75 -114 72 -121 75 -179 75 l-60 0 0 -1423 0 -1422 815 -563 c448
-310 817 -567 820 -571 2 -5 -3 -15 -13 -23 -33 -29 -588 -338 -606 -338 -10
0 -73 26 -140 58 -803 385 -1387 1133 -1561 2002 -43 211 -50 294 -50 565 1
288 17 432 76 670 293 1178 1288 2033 2509 2154 130 13 480 5 620 -14z m-1345
-1619 c352 -249 640 -459 640 -466 0 -7 -7 -17 -16 -23 -13 -8 -142 69 -645
388 -346 219 -635 405 -641 413 -13 16 -18 124 -6 135 3 4 11 7 17 7 6 -1 299
-205 651 -454z m2583 377 l3 -71 -43 -30 c-24 -16 -308 -197 -632 -402 -534
-339 -591 -372 -615 -364 -14 5 -26 16 -26 24 0 18 1274 921 1295 917 11 -2
16 -20 18 -74z m-2408 -319 c242 -212 440 -390 440 -395 0 -6 -10 -4 -22 2
-31 16 -827 577 -855 602 -20 18 -23 30 -23 99 0 48 4 78 10 78 6 0 209 -174
450 -386z m2020 308 c0 -63 -4 -82 -17 -94 -27 -23 -837 -594 -863 -608 -18
-10 -21 -9 -18 2 6 18 870 777 886 778 8 0 12 -22 12 -78z m-1840 -273 c162
-181 302 -339 310 -351 14 -20 14 -21 -4 -15 -33 13 -624 538 -630 560 -8 29
-8 101 0 121 3 9 11 16 18 15 6 0 144 -149 306 -330z m1520 254 l0 -78 -311
-272 c-172 -150 -316 -273 -321 -273 -5 0 -5 6 0 16 19 33 608 684 620 684 8
0 12 -22 12 -77z m-1358 -246 c254 -343 264 -357 250 -357 -10 0 -427 456
-480 524 -30 40 -31 136 -1 136 4 0 108 -136 231 -303z m1126 246 c4 -59 24
-32 -277 -366 -197 -219 -250 -271 -220 -215 11 20 376 517 442 601 16 21 34
36 41 34 6 -2 12 -26 14 -54z m-568 -824 c66 -14 151 -50 147 -62 -16 -50
-334 -66 -478 -24 -60 18 -56 37 13 64 94 38 209 46 318 22z"/>
</g>
</svg>
